<?xml version="1.0" encoding="UTF-8"?>
<svg width="314px" height="77px" viewBox="0 0 314 77" version="1.1" xmlns="http://www.w3.org/2000/svg" xmlns:xlink="http://www.w3.org/1999/xlink">
    <!-- Generator: Sketch 51.2 (57519) - http://www.bohemiancoding.com/sketch -->
    <title>Logo-Sciences-ULB</title>
    <desc>Created with Sketch.</desc>
    <defs>
        <polygon id="path-1" points="0 0.0568909091 18.2356595 0.0568909091 18.2356595 20.3633075 0 20.3633075"></polygon>
        <polygon id="path-3" points="0.567730952 0.00254545455 17.390246 0.00254545455 17.390246 19.7264455 0.567730952 19.7264455"></polygon>
        <polygon id="path-5" points="0 0.0568909091 18.2356595 0.0568909091 18.2356595 20.3633075 0 20.3633075"></polygon>
        <polygon id="path-7" points="0.567730952 0.00254545455 17.390246 0.00254545455 17.390246 19.7264455 0.567730952 19.7264455"></polygon>
    </defs>
    <g id="Logo-Sciences-ULB" stroke="none" stroke-width="1" fill="none" fill-rule="evenodd">
        <rect fill="#FFFFFF" x="0" y="0" width="314" height="77"></rect>
        <g id="Page-1-Copy" transform="translate(1.232910, 0.973145)">
            <polygon id="Fill-1" fill="#593194" points="0 75 75 75 75 0 0 0"></polygon>
            <g id="Page-1" transform="translate(10.000000, 26.000000)">
                <polygon id="Fill-1" fill="#C3AFE1" points="29.1947976 17.2889818 34.1641786 17.2889818 34.1641786 12.2776182"></polygon>
                <polygon id="Fill-2" fill="#FFFFFE" points="20.0016321 0.636554545 20.0016321 3.59691818 22.349406 3.59691818 22.349406 17.3996455 20.0016321 17.3996455 20.0016321 20.3606455 34.1639893 20.3606455 34.1639893 17.2889182 27.0096202 17.2889182 27.0096202 3.59691818 29.6141917 3.59691818 29.6141917 0.636554545"></polygon>
                <g id="Group-9" transform="translate(0.000000, 0.633945)">
                    <g id="Group-5">
                        <mask id="mask-2" fill="white">
                            <use xlink:href="#path-1"></use>
                        </mask>
                        <g id="Clip-4"></g>
                        <path d="M13.6492667,18.9708909 C15.3982667,17.5454364 15.778731,15.9691636 15.777469,13.5878909 L15.7749452,3.02043636 L18.2356595,3.01789091 L18.2356595,0.0568909091 L11.0049452,0.0594363636 L11.0049452,3.02043636 L12.5482548,3.01789091 L12.5482548,14.0868 C12.5482548,15.6395273 11.2951833,16.8938 9.75629048,16.8950727 C7.74418333,16.8969818 6.96937381,15.6369818 6.96937381,14.0848909 L6.96937381,14.0683455 L6.96937381,3.01534545 L8.58587381,3.01789091 L8.71837381,0.0568909091 L0.13237381,0.0568909091 L-0.000126190476,3.01789091 L2.30221905,3.01789091 L2.31168333,13.3422545 C2.31168333,15.4810727 2.35080238,16.7118 3.47263571,18.2778909 C4.47963571,19.6836182 6.23305238,20.3702545 9.03321905,20.3632545 C11.0055762,20.3588 12.5438381,19.8719818 13.6492667,18.9708909" id="Fill-3" fill="#FFFFFE" mask="url(#mask-2)"></path>
                    </g>
                    <g id="Group-8" transform="translate(35.333333, 0.000000)">
                        <mask id="mask-4" fill="white">
                            <use xlink:href="#path-3"></use>
                        </mask>
                        <g id="Clip-7"></g>
                        <path d="M9.54996905,16.6572636 C11.5431476,16.6477182 12.4479333,15.6556273 12.4536119,13.9005364 C12.4586595,12.0919909 11.2516476,10.8479 9.54239762,10.8421727 L7.6836119,10.8453545 L7.68550476,16.6572636 L9.54996905,16.6572636 Z M9.30705238,7.99380909 C10.8983143,7.99826364 11.7885881,7.04499091 11.7930048,5.51899091 C11.7974214,3.9459 10.7878976,2.96526364 9.30200476,2.96080909 L7.68550476,2.96271818 L7.68550476,7.99571818 L9.30705238,7.99380909 Z M15.1250643,9.81953636 C16.4866595,10.7740818 17.38135,12.3408091 17.3901833,14.2308091 C17.4059571,17.1943545 14.439219,19.7289909 11.7027786,19.7251727 L0.680040476,19.7264455 L0.677516667,16.6553545 L2.91613571,16.6553545 L2.91613571,2.96271818 L0.567730952,2.96271818 L0.567730952,0.00235454545 L11.7217071,0.00235454545 C14.4606714,0.00235454545 16.6835167,2.15899091 16.6835167,4.85271818 C16.6835167,6.07326364 16.0796952,7.51462727 15.1181238,8.4049 L13.8000643,9.23280909 L15.1250643,9.81953636 Z" id="Fill-6" fill="#FFFFFE" mask="url(#mask-4)"></path>
                    </g>
                </g>
            </g>
        </g>
        <g id="Page-1-Copy" transform="translate(1.232910, 0.973145)">
            <polygon id="Fill-1" fill="#593194" points="0 75 75 75 75 0 0 0"></polygon>
            <g id="Page-1" transform="translate(10.000000, 26.000000)">
                <polygon id="Fill-1" fill="#C3AFE1" points="29.1947976 17.2889818 34.1641786 17.2889818 34.1641786 12.2776182"></polygon>
                <polygon id="Fill-2" fill="#FFFFFE" points="20.0016321 0.636554545 20.0016321 3.59691818 22.349406 3.59691818 22.349406 17.3996455 20.0016321 17.3996455 20.0016321 20.3606455 34.1639893 20.3606455 34.1639893 17.2889182 27.0096202 17.2889182 27.0096202 3.59691818 29.6141917 3.59691818 29.6141917 0.636554545"></polygon>
                <g id="Group-9" transform="translate(0.000000, 0.633945)">
                    <g id="Group-5">
                        <mask id="mask-6" fill="white">
                            <use xlink:href="#path-5"></use>
                        </mask>
                        <g id="Clip-4"></g>
                        <path d="M13.6492667,18.9708909 C15.3982667,17.5454364 15.778731,15.9691636 15.777469,13.5878909 L15.7749452,3.02043636 L18.2356595,3.01789091 L18.2356595,0.0568909091 L11.0049452,0.0594363636 L11.0049452,3.02043636 L12.5482548,3.01789091 L12.5482548,14.0868 C12.5482548,15.6395273 11.2951833,16.8938 9.75629048,16.8950727 C7.74418333,16.8969818 6.96937381,15.6369818 6.96937381,14.0848909 L6.96937381,14.0683455 L6.96937381,3.01534545 L8.58587381,3.01789091 L8.71837381,0.0568909091 L0.13237381,0.0568909091 L-0.000126190476,3.01789091 L2.30221905,3.01789091 L2.31168333,13.3422545 C2.31168333,15.4810727 2.35080238,16.7118 3.47263571,18.2778909 C4.47963571,19.6836182 6.23305238,20.3702545 9.03321905,20.3632545 C11.0055762,20.3588 12.5438381,19.8719818 13.6492667,18.9708909" id="Fill-3" fill="#FFFFFE" mask="url(#mask-6)"></path>
                    </g>
                    <g id="Group-8" transform="translate(35.333333, 0.000000)">
                        <mask id="mask-8" fill="white">
                            <use xlink:href="#path-7"></use>
                        </mask>
                        <g id="Clip-7"></g>
                        <path d="M9.54996905,16.6572636 C11.5431476,16.6477182 12.4479333,15.6556273 12.4536119,13.9005364 C12.4586595,12.0919909 11.2516476,10.8479 9.54239762,10.8421727 L7.6836119,10.8453545 L7.68550476,16.6572636 L9.54996905,16.6572636 Z M9.30705238,7.99380909 C10.8983143,7.99826364 11.7885881,7.04499091 11.7930048,5.51899091 C11.7974214,3.9459 10.7878976,2.96526364 9.30200476,2.96080909 L7.68550476,2.96271818 L7.68550476,7.99571818 L9.30705238,7.99380909 Z M15.1250643,9.81953636 C16.4866595,10.7740818 17.38135,12.3408091 17.3901833,14.2308091 C17.4059571,17.1943545 14.439219,19.7289909 11.7027786,19.7251727 L0.680040476,19.7264455 L0.677516667,16.6553545 L2.91613571,16.6553545 L2.91613571,2.96271818 L0.567730952,2.96271818 L0.567730952,0.00235454545 L11.7217071,0.00235454545 C14.4606714,0.00235454545 16.6835167,2.15899091 16.6835167,4.85271818 C16.6835167,6.07326364 16.0796952,7.51462727 15.1181238,8.4049 L13.8000643,9.23280909 L15.1250643,9.81953636 Z" id="Fill-6" fill="#FFFFFE" mask="url(#mask-8)"></path>
                    </g>
                </g>
            </g>
        </g>
        <path d="M93.4014375,17.8151445 L93.1154375,19.5531445 L87.6374375,19.5531445 L87.6374375,24.1511445 L92.1254375,24.1511445 L92.1254375,25.8671445 L87.6374375,25.8671445 L87.6374375,32.9731445 L85.5034375,32.9731445 L85.5034375,17.8151445 L93.4014375,17.8151445 Z M105.177437,32.9731445 L102.801437,32.9731445 L101.459438,28.6831445 L96.2014375,28.6831445 L94.8814375,32.9731445 L92.6814375,32.9731445 L97.6534375,17.7931445 L100.293437,17.7931445 L105.177437,32.9731445 Z M100.997437,26.9231445 C100.733437,26.2191445 99.1494375,20.7851445 98.9514375,19.9051445 L98.8194375,19.9051445 C98.5994375,20.7631445 96.9934375,26.1971445 96.7294375,26.9231445 L100.997437,26.9231445 Z M116.337437,31.9391445 C115.171437,32.7751445 113.785438,33.1931445 112.245437,33.1931445 C110.265437,33.1931445 108.681438,32.3791445 107.537437,30.9271445 C106.459437,29.5411445 105.887438,27.7151445 105.887438,25.5151445 C105.887438,23.7551445 106.239437,22.2371445 106.877437,21.0051445 C107.999437,18.8491445 110.001437,17.5291445 112.333438,17.5291445 C113.763437,17.5291445 115.105437,17.9471445 116.051437,18.7171445 L115.017437,20.1031445 C114.181437,19.4871445 113.345438,19.2231445 112.333438,19.2231445 C110.837437,19.2231445 109.671437,19.9931445 108.967437,21.4011445 C108.483437,22.3691445 108.241437,23.6451445 108.241437,25.4711445 C108.241437,27.1651445 108.417438,28.1551445 108.791438,29.0351445 C109.495437,30.7071445 110.903437,31.4991445 112.509437,31.4991445 C113.675437,31.4991445 114.489437,31.1911445 115.303438,30.5531445 L116.337437,31.9391445 Z M128.685437,28.2211445 C128.685437,30.1351445 128.575437,30.5971445 127.893438,31.4331445 C127.123437,32.3791445 125.869438,33.2151445 123.537437,33.2151445 C121.249437,33.2151445 119.731437,32.4891445 118.961437,31.1031445 C118.565438,30.3991445 118.477437,29.9811445 118.477437,28.3971445 L118.477437,17.8151445 L120.611437,17.8151445 L120.611437,27.6051445 C120.611437,28.7051445 120.721437,30.0471445 121.161438,30.5531445 C121.579437,31.0371445 122.349437,31.4111445 123.559438,31.4111445 C124.703437,31.4111445 125.539437,31.0591445 126.023438,30.4211445 C126.397437,29.9371445 126.573437,29.1231445 126.573437,27.9131445 L126.573437,17.8151445 L128.685437,17.8151445 L128.685437,28.2211445 Z M139.955437,31.2131445 L139.603437,32.9731445 L132.035438,32.9731445 L132.035438,17.8151445 L134.191438,17.8151445 L134.191438,31.2131445 L139.955437,31.2131445 Z M148.761437,17.8151445 L148.541438,19.5751445 L144.603437,19.5751445 L144.603437,32.9731445 L142.513438,32.9731445 L142.513438,19.5751445 L138.575437,19.5751445 L138.575437,17.8151445 L148.761437,17.8151445 Z M158.403437,32.9731445 L149.911437,32.9731445 L149.911437,17.8151445 L158.161437,17.8151445 L157.875437,19.5531445 L152.067437,19.5531445 L152.067437,24.1731445 L156.929438,24.1731445 L156.929438,25.9551445 L152.067437,25.9551445 L152.067437,31.1471445 L158.403437,31.1471445 L158.403437,32.9731445 Z M157.149437,14.8231445 L152.375437,17.0671445 L151.737437,15.8791445 L156.159437,12.9531445 L157.149437,14.8231445 Z M96.0414375,51.4051445 C96.0414375,53.8691445 95.4034375,55.6731445 94.3914375,56.9271445 C93.3354375,58.2471445 91.9274375,58.9731445 89.2874375,58.9731445 L85.5034375,58.9731445 L85.5034375,43.8151445 L89.0234375,43.8151445 C91.6414375,43.8151445 93.3134375,44.4091445 94.6994375,46.3231445 C95.6014375,47.5771445 96.0414375,49.3151445 96.0414375,51.4051445 Z M93.6874375,51.6691445 C93.6874375,49.5571445 93.4674375,47.9951445 92.5654375,46.8511445 C91.7294375,45.7951445 90.8494375,45.5091445 89.3754375,45.5091445 L87.6594375,45.5091445 L87.6594375,57.2351445 L89.3314375,57.2351445 C91.0694375,57.2351445 92.1914375,56.7731445 92.8734375,55.5411445 C93.4234375,54.5291445 93.6874375,53.1651445 93.6874375,51.6691445 Z M107.333438,58.9731445 L98.8414375,58.9731445 L98.8414375,43.8151445 L107.091437,43.8151445 L106.805437,45.5531445 L100.997438,45.5531445 L100.997438,50.1731445 L105.859437,50.1731445 L105.859437,51.9551445 L100.997438,51.9551445 L100.997438,57.1471445 L107.333438,57.1471445 L107.333438,58.9731445 Z M119.197438,54.5511445 C119.197438,56.6631445 117.459438,59.2591445 113.477438,59.2591445 C111.739438,59.2591445 110.067437,58.8191445 108.593437,57.9171445 L109.429438,56.2891445 C110.749437,57.1031445 112.003438,57.5431445 113.521437,57.5431445 C115.501438,57.5431445 116.799437,56.5311445 116.799437,54.9031445 C116.799437,53.6711445 115.985438,52.8131445 114.291438,52.3291445 L112.707437,51.8671445 C110.419438,51.2071445 109.121437,50.1071445 109.121437,47.9511445 C109.121437,45.3331445 111.145437,43.5511445 114.137438,43.5511445 C115.809438,43.5511445 117.437438,44.0351445 118.779438,44.9811445 L117.833438,46.4771445 C116.425438,45.6191445 115.479438,45.2891445 114.225437,45.2891445 C112.531437,45.2891445 111.475437,46.1691445 111.475437,47.5771445 C111.475437,48.6551445 112.091437,49.2711445 113.719437,49.7551445 L115.501438,50.2831445 C117.525437,50.8771445 119.197438,52.1971445 119.197438,54.5511445 Z M135.291438,54.5511445 C135.291438,56.6631445 133.553438,59.2591445 129.571438,59.2591445 C127.833438,59.2591445 126.161438,58.8191445 124.687438,57.9171445 L125.523438,56.2891445 C126.843437,57.1031445 128.097438,57.5431445 129.615437,57.5431445 C131.595438,57.5431445 132.893438,56.5311445 132.893438,54.9031445 C132.893438,53.6711445 132.079437,52.8131445 130.385437,52.3291445 L128.801437,51.8671445 C126.513438,51.2071445 125.215438,50.1071445 125.215438,47.9511445 C125.215438,45.3331445 127.239438,43.5511445 130.231437,43.5511445 C131.903437,43.5511445 133.531438,44.0351445 134.873437,44.9811445 L133.927437,46.4771445 C132.519438,45.6191445 131.573438,45.2891445 130.319437,45.2891445 C128.625438,45.2891445 127.569437,46.1691445 127.569437,47.5771445 C127.569437,48.6551445 128.185438,49.2711445 129.813437,49.7551445 L131.595438,50.2831445 C133.619438,50.8771445 135.291438,52.1971445 135.291438,54.5511445 Z M147.771437,57.9391445 C146.605437,58.7751445 145.219437,59.1931445 143.679438,59.1931445 C141.699437,59.1931445 140.115437,58.3791445 138.971438,56.9271445 C137.893438,55.5411445 137.321438,53.7151445 137.321438,51.5151445 C137.321438,49.7551445 137.673438,48.2371445 138.311438,47.0051445 C139.433437,44.8491445 141.435438,43.5291445 143.767437,43.5291445 C145.197438,43.5291445 146.539438,43.9471445 147.485437,44.7171445 L146.451437,46.1031445 C145.615437,45.4871445 144.779438,45.2231445 143.767437,45.2231445 C142.271437,45.2231445 141.105437,45.9931445 140.401437,47.4011445 C139.917438,48.3691445 139.675437,49.6451445 139.675437,51.4711445 C139.675437,53.1651445 139.851438,54.1551445 140.225437,55.0351445 C140.929438,56.7071445 142.337437,57.4991445 143.943438,57.4991445 C145.109438,57.4991445 145.923438,57.1911445 146.737437,56.5531445 L147.771437,57.9391445 Z M152.287438,58.9731445 L150.131438,58.9731445 L150.131438,43.8151445 L152.287438,43.8151445 L152.287438,58.9731445 Z M164.239438,58.9731445 L155.747437,58.9731445 L155.747437,43.8151445 L163.997437,43.8151445 L163.711437,45.5531445 L157.903437,45.5531445 L157.903437,50.1731445 L162.765438,50.1731445 L162.765438,51.9551445 L157.903437,51.9551445 L157.903437,57.1471445 L164.239438,57.1471445 L164.239438,58.9731445 Z M176.587438,58.9731445 L174.321438,58.9731445 L170.339438,50.9211445 C169.569437,49.3591445 168.777438,47.6431445 168.491438,46.7631445 L168.359438,46.7851445 C168.469437,48.0831445 168.513438,49.6011445 168.535438,51.0091445 L168.623438,58.9731445 L166.489438,58.9731445 L166.489438,43.8151445 L168.953438,43.8151445 L173.177437,52.1751445 C173.815438,53.4291445 174.563438,55.3871445 174.673438,55.8051445 L174.805438,55.7611445 C174.761437,55.3211445 174.585438,52.9231445 174.585438,51.2511445 L174.541438,43.8151445 L176.587438,43.8151445 L176.587438,58.9731445 Z M189.837438,57.9391445 C188.671438,58.7751445 187.285438,59.1931445 185.745438,59.1931445 C183.765438,59.1931445 182.181438,58.3791445 181.037438,56.9271445 C179.959438,55.5411445 179.387438,53.7151445 179.387438,51.5151445 C179.387438,49.7551445 179.739438,48.2371445 180.377438,47.0051445 C181.499437,44.8491445 183.501438,43.5291445 185.833438,43.5291445 C187.263438,43.5291445 188.605437,43.9471445 189.551438,44.7171445 L188.517438,46.1031445 C187.681438,45.4871445 186.845438,45.2231445 185.833438,45.2231445 C184.337438,45.2231445 183.171438,45.9931445 182.467438,47.4011445 C181.983438,48.3691445 181.741438,49.6451445 181.741438,51.4711445 C181.741438,53.1651445 181.917438,54.1551445 182.291438,55.0351445 C182.995438,56.7071445 184.403437,57.4991445 186.009437,57.4991445 C187.175438,57.4991445 187.989438,57.1911445 188.803438,56.5531445 L189.837438,57.9391445 Z M200.689437,58.9731445 L192.197438,58.9731445 L192.197438,43.8151445 L200.447438,43.8151445 L200.161438,45.5531445 L194.353438,45.5531445 L194.353438,50.1731445 L199.215438,50.1731445 L199.215438,51.9551445 L194.353438,51.9551445 L194.353438,57.1471445 L200.689437,57.1471445 L200.689437,58.9731445 Z M212.773438,54.5511445 C212.773438,56.6631445 211.035438,59.2591445 207.053438,59.2591445 C205.315438,59.2591445 203.643438,58.8191445 202.169438,57.9171445 L203.005438,56.2891445 C204.325438,57.1031445 205.579438,57.5431445 207.097438,57.5431445 C209.077438,57.5431445 210.375438,56.5311445 210.375438,54.9031445 C210.375438,53.6711445 209.561438,52.8131445 207.867438,52.3291445 L206.283438,51.8671445 C203.995438,51.2071445 202.697438,50.1071445 202.697438,47.9511445 C202.697438,45.3331445 204.721438,43.5511445 207.713438,43.5511445 C209.385438,43.5511445 211.013438,44.0351445 212.355438,44.9811445 L211.409438,46.4771445 C210.001438,45.6191445 209.055438,45.2891445 207.801438,45.2891445 C206.107438,45.2891445 205.051438,46.1691445 205.051438,47.5771445 C205.051438,48.6551445 205.667438,49.2711445 207.295438,49.7551445 L209.077438,50.2831445 C211.101438,50.8771445 212.773438,52.1971445 212.773438,54.5511445 Z" id="Faculté-des-sciences" fill="#000000"></path>
    </g>
</svg>